# xmcd
#
# Track frame offsets: 
#        150
#        16690
#        33490
#        43084
#        59990
#        77682
#        93859
#        111354
#        122891
#        136602
#        151325
#        166884
#
# Disc length: 2439 seconds
#
# Revision: 2
# Processed by: cddbd v1.4PL0 Copyright (c) Steve Scherf et al.
# Submitted via: ExactAudioCopy v0.90b4
#
DISCID=9509850c
DTITLE=Reba McEntire - The Best Of Reba (20th Century Masters The Chri
DTITLE=stmas Collection)
DYEAR=2003
DGENRE=Christmas
TTITLE0=This Is My Prayer For You
TTITLE1=I Saw Mama Kissing Santa Claus
TTITLE2=Up On The Housetop
TTITLE3=The Angels Sang
TTITLE4=The Secret Of Giving
TTITLE5=Silent Night
TTITLE6=O Holy Night
TTITLE7=Happy Birthday Jesus (I'll Open This One For You)
TTITLE8=White Christmas
TTITLE9=I'll Be Home For Christmas
TTITLE10=The Christmas Song (Chestnuts Roasting On An Open Fire)
TTITLE11='Til The Season Comes 'Round Again
EXTD=
EXTT0=
EXTT1=
EXTT2=
EXTT3=
EXTT4=
EXTT5=
EXTT6=
EXTT7=
EXTT8=
EXTT9=
EXTT10=
EXTT11=
PLAYORDER=
